<svg width="484" height="463" viewBox="0 0 484 463" fill="none" xmlns="http://www.w3.org/2000/svg">
<path d="M81.1693 54.074C82.8951 39.6161 80.0188 20.2621 73.4033 11.8379H85.7599C92.3754 20.2621 95.2517 39.6161 93.5259 54.074H81.1693Z" fill="#FE8205"/>
<path d="M128.203 54.074C129.928 39.6161 127.052 20.2621 120.437 11.8379H132.793C139.409 20.2621 142.285 39.6161 140.559 54.074H128.203Z" fill="#FE8205"/>
<path d="M175.224 54.074C176.95 39.6161 174.073 20.2621 167.458 11.8379H179.815C186.43 20.2621 189.306 39.6161 187.581 54.074H175.224Z" fill="#FE8205"/>
<path d="M222.257 54.074C223.983 39.6161 221.107 20.2621 214.491 11.8379H226.848C233.463 20.2621 236.34 39.6161 234.614 54.074H222.257Z" fill="#FE8205"/>
<path d="M269.279 54.074C271.004 39.6161 268.128 20.2621 261.513 11.8379H273.869C280.485 20.2621 283.361 39.6161 281.635 54.074H269.279Z" fill="#FE8205"/>
<path d="M101.671 462.38H344.143L295.165 34.3867H52.6934L101.671 462.38Z" fill="#D0DEF5"/>
<path d="M242.472 462.38H0L48.9776 34.3867H291.449L242.472 462.38Z" fill="white"/>
<path d="M93.6061 145.316H56.0762L60.3676 107.826H97.8975L93.6061 145.316ZM61.2075 140.719H89.5332L92.7662 112.423H64.4404L61.2075 140.719Z" fill="#BFC6DE"/>
<path d="M260.041 115.733H115.075L115.604 111.136H260.57L260.041 115.733Z" fill="#212A45"/>
<path d="M258.534 128.87H113.568L114.098 124.272H259.063L258.534 128.87Z" fill="#212A45"/>
<path d="M207.174 142.017H112.072L112.59 137.42H207.703L207.174 142.017Z" fill="#212A45"/>
<path d="M86.6344 206.216H49.1045L53.3959 168.727H90.9258L86.6344 206.216ZM54.2358 201.619H82.5616L85.7945 173.324H57.4688L54.2358 201.619Z" fill="#BFC6DE"/>
<path d="M253.069 176.633H108.104L108.633 172.036H253.598L253.069 176.633Z" fill="#212A45"/>
<path d="M251.562 189.781H106.597L107.126 185.184H252.091L251.562 189.781Z" fill="#212A45"/>
<path d="M200.202 202.917H105.101L105.618 198.32H200.732L200.202 202.917Z" fill="#212A45"/>
<path d="M79.6735 267.128H42.1436L46.435 229.639H83.9649L79.6735 267.128ZM47.2749 262.531H75.6006L78.8336 234.236H50.5078L47.2749 262.531Z" fill="#BFC6DE"/>
<path d="M246.096 237.535H101.143L101.66 232.938H246.626L246.096 237.535Z" fill="#212A45"/>
<path d="M244.6 250.682H99.6348L100.153 246.085H245.118L244.6 250.682Z" fill="#212A45"/>
<path d="M193.241 263.831H98.1279L98.6572 259.233H193.759L193.241 263.831Z" fill="#212A45"/>
<path d="M72.7008 328.029H35.1709L39.4623 290.539H76.9922L72.7008 328.029ZM40.3022 323.432H68.628L71.8609 295.136H43.5352L40.3022 323.432Z" fill="#BFC6DE"/>
<path d="M239.135 298.446H94.1699L94.6877 293.849H239.653L239.135 298.446Z" fill="#212A45"/>
<path d="M237.627 311.582H92.6621L93.1913 306.985H238.145L237.627 311.582Z" fill="#212A45"/>
<path d="M186.269 324.73H91.1553L91.6845 320.133H186.798L186.269 324.73Z" fill="#212A45"/>
<path d="M65.7291 388.941H28.1992L32.4907 351.451H70.0206L65.7291 388.941ZM33.3305 384.344H61.6563L64.8892 356.048H36.5635L33.3305 384.344Z" fill="#BFC6DE"/>
<path d="M232.164 359.347H87.1982L87.7275 354.75H232.681L232.164 359.347Z" fill="#212A45"/>
<path d="M230.657 372.495H85.6914L86.2206 367.897H231.186L230.657 372.495Z" fill="#212A45"/>
<path d="M179.297 385.631H84.1953L84.713 381.034H179.826L179.297 385.631Z" fill="#212A45"/>
<path d="M75.0827 135.409L66.5459 125.778L70.17 122.525L75.8306 128.904L98.4843 108.607L101.361 111.848L75.0827 135.409Z" fill="#2A3BB7"/>
<path d="M68.157 195.918L59.6201 186.287L63.2443 183.035L68.9048 189.414L91.5585 169.117L94.4348 172.37L68.157 195.918Z" fill="#2A3BB7"/>
<path d="M61.2417 256.44L52.6934 246.809L56.329 243.556L61.978 249.935L84.6317 229.627L87.508 232.879L61.2417 256.44Z" fill="#2A3BB7"/>
<path d="M54.3161 316.95L45.7793 307.319L49.4034 304.066L55.0525 310.445L77.7062 290.148L80.5825 293.401L54.3161 316.95Z" fill="#2A3BB7"/>
<path d="M47.3894 377.459L38.8525 367.828L42.4767 364.588L48.1372 370.966L70.7794 350.658L73.6672 353.911L47.3894 377.459Z" fill="#2A3BB7"/>
<path d="M75.0943 44.9023H68.5939C65.9823 44.9023 63.8652 47.0172 63.8652 49.6259V56.1308C63.8652 58.7396 65.9823 60.8544 68.5939 60.8544H75.0943C77.7058 60.8544 79.8229 58.7396 79.8229 56.1308V49.6259C79.8229 47.0172 77.7058 44.9023 75.0943 44.9023Z" fill="#B6C2D6"/>
<path d="M78.0284 54.074C76.3027 39.6161 79.179 20.2621 85.7944 11.8379H73.4379C66.8224 20.2621 63.9461 39.6161 65.6719 54.074H78.0284Z" fill="#FED905"/>
<path d="M122.116 44.9023H115.615C113.004 44.9023 110.887 47.0172 110.887 49.6259V56.1308C110.887 58.7396 113.004 60.8544 115.615 60.8544H122.116C124.727 60.8544 126.844 58.7396 126.844 56.1308V49.6259C126.844 47.0172 124.727 44.9023 122.116 44.9023Z" fill="#B6C2D6"/>
<path d="M125.05 54.074C123.324 39.6161 126.2 20.2621 132.816 11.8379H120.459C113.844 20.2621 110.968 39.6161 112.693 54.074H125.05Z" fill="#FED905"/>
<path d="M169.149 44.9023H162.649C160.037 44.9023 157.92 47.0172 157.92 49.6259V56.1308C157.92 58.7396 160.037 60.8544 162.649 60.8544H169.149C171.761 60.8544 173.878 58.7396 173.878 56.1308V49.6259C173.878 47.0172 171.761 44.9023 169.149 44.9023Z" fill="#B6C2D6"/>
<path d="M172.083 54.074C170.357 39.6161 173.234 20.2621 179.849 11.8379H167.493C160.877 20.2621 158.001 39.6161 159.727 54.074H172.083Z" fill="#FED905"/>
<path d="M216.17 44.9023H209.67C207.058 44.9023 204.941 47.0172 204.941 49.6259V56.1308C204.941 58.7396 207.058 60.8544 209.67 60.8544H216.17C218.782 60.8544 220.899 58.7396 220.899 56.1308V49.6259C220.899 47.0172 218.782 44.9023 216.17 44.9023Z" fill="#B6C2D6"/>
<path d="M219.105 54.074C217.379 39.6161 220.255 20.2621 226.871 11.8379H214.514C207.899 20.2621 205.022 39.6161 206.748 54.074H219.105Z" fill="#FED905"/>
<path d="M263.204 44.9023H256.703C254.092 44.9023 251.975 47.0172 251.975 49.6259V56.1308C251.975 58.7396 254.092 60.8544 256.703 60.8544H263.204C265.815 60.8544 267.932 58.7396 267.932 56.1308V49.6259C267.932 47.0172 265.815 44.9023 263.204 44.9023Z" fill="#B6C2D6"/>
<path d="M266.138 54.074C264.412 39.6161 267.288 20.2621 273.904 11.8379H261.547C254.932 20.2621 252.055 39.6161 253.781 54.074H266.138Z" fill="#FED905"/>
<g style="mix-blend-mode:multiply">
<path d="M483.816 142.109C482.941 139.316 476.579 130.524 474.922 128.341C473.266 126.157 465.983 114.17 462.865 108.654C459.747 103.137 451.452 88.4837 450.635 87.1965C449.921 86.0587 448.38 84.2888 446.781 83.9096C446.792 83.8751 446.827 83.8406 446.815 83.7946C446.815 83.6452 446.665 83.5418 446.527 83.5533C446.493 83.5533 446.458 83.5763 446.424 83.5763C445.803 83.0361 444.94 82.4845 444.054 82.1741C442.639 81.6685 424.944 75.5083 420.526 73.4051C420.273 73.2787 420.008 73.1523 419.766 73.0259C419.559 72.9224 419.364 72.8075 419.157 72.6926C415.417 70.5894 412.541 67.7506 410.735 67.5093C410.309 66.7393 409.573 64.3258 409.193 63.7856C408.813 63.2455 406.374 62.1192 406.363 62.1077C406.363 61.7974 406.351 61.4871 406.34 61.1882C409.745 52.81 415.13 42.5584 416.591 35.3754C417.304 36.2028 418.88 37.2947 418.88 37.2947C419.502 31.2839 418.754 19.4003 415.015 12.5276C411.276 5.66639 403.613 1.58644 390.118 2.16108C376.61 2.73572 365.715 10.8382 365.289 11.976C365.048 12.6425 365.013 13.8263 365.025 14.6998C363.414 17.1132 357.661 26.9051 361.93 38.9611C361.93 38.9611 362.931 36.4442 363.31 34.9156C363.426 36.1798 364.162 37.3981 364.956 38.3635C364.91 38.3865 364.829 38.421 364.795 38.4439C364.519 38.5704 364.369 38.6508 364.369 38.6508L364.311 38.6853L364.265 38.7313C364.265 38.7313 364.231 38.7542 364.173 38.8002C364.104 38.8692 364.058 38.8577 363.874 39.1105C363.84 39.1565 363.794 39.2254 363.759 39.2829C363.759 39.2829 362.758 39.961 362.586 40.1449C362.413 40.3288 362.286 40.5931 362.333 40.823C362.379 41.0528 362.471 41.524 362.517 41.7194C362.551 41.8573 363 41.9607 363.264 42.0067C363.264 42.2251 363.276 42.4319 363.31 42.6733C363.426 43.3859 363.541 44.1789 363.713 45.0753C363.817 45.5235 363.886 45.9832 364.07 46.4659L364.196 46.8337C364.231 46.9256 364.196 46.9027 364.3 47.0751L364.403 47.2245C364.519 47.4198 364.714 47.6382 364.933 47.8451C365.784 48.6151 366.774 49.0863 367.936 49.3851C368.005 49.4081 368.074 49.4081 368.143 49.4196C368.741 52.7525 369.167 55.0626 370.455 57.4876C372.434 61.2112 377.611 65.9808 378.981 67.6127C379.257 67.9345 379.487 68.2104 379.705 68.4517L379.038 73.4281L379.211 72.1409C379.211 72.1409 377.243 73.3821 376.944 73.8763C376.645 74.3705 376.093 76.8645 375.679 77.6805C374.355 77.8758 372.261 80.3123 370.754 81.8983C370.628 82.0247 370.513 82.1512 370.398 82.2661C370.398 82.2661 370.386 82.2776 370.375 82.2891C370.26 82.404 370.145 82.5189 370.029 82.6224C369.972 82.6798 369.903 82.7373 369.845 82.7948C368.384 84.082 356.706 92.9084 354.946 94.483C354.106 95.23 353.819 95.9655 353.75 96.7126C353.75 96.7126 352.208 98.471 352.484 100.379C352.76 102.287 352.749 140.224 352.829 142.236C352.91 144.235 352.116 144.81 351.679 145.764C351.242 146.718 350.85 148.626 350.85 148.626C350.85 148.626 348.906 149.924 348.641 150.223C348.365 150.522 348.354 152.062 348.354 152.062C348.354 152.062 341.497 160.176 340.99 160.923C340.484 161.67 340.542 162.532 341.267 163.118C335.71 170.048 317.428 192.839 316.392 193.815C315.184 194.965 313.988 195.723 312.423 196.298C312.227 196.367 311.986 196.436 311.71 196.516C311.641 196.539 311.56 196.551 311.48 196.574C311.422 196.585 311.365 196.597 311.307 196.62C311.215 196.643 311.134 196.654 311.042 196.677C310.985 196.689 310.927 196.7 310.87 196.712C310.778 196.735 310.686 196.746 310.594 196.769C310.525 196.781 310.467 196.792 310.398 196.804C310.306 196.827 310.203 196.838 310.099 196.861C310.041 196.861 309.972 196.884 309.915 196.896C309.811 196.919 309.719 196.93 309.616 196.953C309.558 196.953 309.489 196.976 309.432 196.987C309.328 197.01 309.225 197.022 309.121 197.045C309.075 197.045 309.029 197.056 308.983 197.068C308.868 197.091 308.753 197.102 308.649 197.125C308.649 197.125 308.649 197.125 308.626 197.125C308.373 197.171 308.12 197.206 307.879 197.24C307.844 197.24 307.809 197.24 307.763 197.252C307.671 197.263 307.579 197.275 307.487 197.298C307.441 197.298 307.395 197.309 307.361 197.321C307.28 197.321 307.211 197.344 307.131 197.355C307.073 197.355 307.027 197.367 306.97 197.378C306.901 197.378 306.843 197.401 306.785 197.401C306.751 197.401 306.716 197.401 306.682 197.413C306.613 197.413 306.544 197.436 306.498 197.436C306.498 197.436 306.475 197.436 306.463 197.436C306.256 197.459 306.141 197.482 306.141 197.482L294.671 143.557C294.256 141.627 292.335 140.477 290.368 140.994L289.378 141.259L282.901 110.814C282.556 109.182 281.117 108.125 279.495 108.148C279.208 106.815 278.816 104.953 278.598 103.907C278.23 102.16 275.307 99.241 273.685 98.2756C272.074 97.3102 263.825 88.2539 262.686 82.9442C261.559 77.6345 261.087 75.4508 260.926 74.6463C260.753 73.8418 260.086 71.8076 259.051 72.0834C258.947 72.1064 258.797 72.1524 258.602 72.1984L254.656 53.6489C254.379 52.3732 253.39 52.1319 252.447 53.1203L243.829 62.1536C242.886 63.142 242.333 65.0039 242.61 66.2796L244.646 75.8646C244.404 75.9335 244.197 75.9795 244.082 76.014C243.047 76.2898 243.265 78.439 243.438 79.2435C243.611 80.048 244.071 82.2316 245.198 87.5413C246.326 92.851 242.598 105.045 241.54 106.711C240.481 108.366 239.043 112.435 239.411 114.182C239.63 115.228 240.032 117.101 240.309 118.423C238.847 119.216 237.996 120.87 238.341 122.502L244.819 152.947L243.829 153.211C241.862 153.729 240.596 155.705 240.999 157.636L301.424 441.808C301.838 443.739 303.76 444.888 305.739 444.371L306.728 444.106L310.191 460.403C310.605 462.334 312.527 463.483 314.494 462.966L316.369 462.472H354.141C354.141 462.472 357.834 459.403 358.375 459.403C358.685 459.403 359.629 460.426 360.365 461.3C360.457 461.679 360.699 462.299 361.297 462.437C361.32 462.46 361.332 462.472 361.332 462.472H402.302C402.302 462.472 405.995 459.403 406.535 459.403C407.076 459.403 409.492 462.472 409.492 462.472H433.596C433.596 462.472 434.608 461.231 434.746 460.587C434.873 459.943 433.895 452.645 433.895 452.645C434.228 449.91 434.608 446.164 434.608 443.279C434.608 441.245 434.355 438.107 434.033 435.05C433.998 434.682 433.952 434.303 433.918 433.935C433.826 433.131 433.745 432.338 433.653 431.579C434.159 431.269 434.412 430.568 434.447 429.878C434.493 429.12 434.804 423.534 434.838 422.868C434.873 422.201 434.585 421.523 434.585 421.523C435.137 420.19 435.379 418.696 435.333 418.247C435.241 417.385 433.768 415.386 433.929 412.524C434.09 409.662 438.9 364.76 436.046 346.314C433.193 327.868 432.468 322.857 432.905 320.145C433.342 317.432 433.63 314.858 433.147 313.283C432.664 311.709 430.432 307.847 430.88 304.848C431.341 301.848 436.794 247.786 437.047 238.063C437.128 235.213 436.714 231.156 436.115 226.857C437.576 224.984 438.531 221.789 438.566 221.191C438.612 220.329 434.712 194.873 434.079 192.023C433.584 189.77 432.756 187.678 432.422 185.219C432.388 184.943 432.342 184.667 432.319 184.368C432.284 183.978 432.261 183.575 432.261 183.15C432.261 183.035 432.261 182.874 432.284 182.679C432.284 182.656 432.284 182.621 432.284 182.598C432.296 182.415 432.319 182.219 432.342 181.978C432.342 181.955 432.342 181.943 432.342 181.92C432.399 181.392 432.491 180.737 432.595 179.978C432.733 178.978 432.917 177.794 433.135 176.473C436.806 174.209 443.456 169.853 446.044 168.278C449.622 166.692 455.755 165.141 460.667 163.532C460.633 163.543 460.598 163.555 460.598 163.555C460.598 163.555 464.061 166.233 465.016 166.44C465.96 166.646 469.089 164.739 470.757 164.118C472.437 163.509 476.36 162.003 476.544 161.118C476.579 160.957 476.521 160.13 476.383 158.9C478.247 159.142 480.479 159.188 480.583 158.739C480.755 157.992 480.755 154.453 481.538 152.74C482.32 151.039 484.713 144.971 483.839 142.178L483.816 142.109ZM403.59 428.499C403.326 428.12 402.785 428.051 402.394 428.338C402.002 428.625 401.899 429.166 402.163 429.545L402.348 429.809C401.588 430.326 400.518 431.108 399.287 432.027L399.126 431.797C398.861 431.418 398.321 431.349 397.93 431.637C397.538 431.924 397.435 432.464 397.699 432.843L397.884 433.096C396.906 433.832 395.882 434.613 394.869 435.372L394.674 435.084C394.409 434.705 393.868 434.636 393.477 434.924C393.074 435.211 392.982 435.751 393.247 436.13L393.454 436.429C392.338 437.257 391.28 438.027 390.394 438.636L390.21 438.371C389.945 437.992 389.404 437.923 389.013 438.21C388.622 438.498 388.518 439.038 388.783 439.417L388.921 439.624C387.955 440.256 387.115 440.865 386.378 441.428C386.378 441.153 386.355 440.877 386.332 440.578C386.332 440.555 386.332 440.532 386.332 440.498C386.275 439.509 386.183 438.44 386.091 437.326C386.091 437.326 386.091 437.326 386.091 437.314C385.93 435.475 385.723 433.544 385.527 431.809C386.079 431.545 386.39 430.844 386.47 430.142C386.562 429.384 387.264 423.821 387.345 423.155C387.425 422.488 387.195 421.787 387.195 421.787C387.195 421.787 387.161 421.787 387.103 421.787C387.805 420.466 388.208 418.891 388.196 418.431C388.173 417.569 386.885 415.432 387.287 412.581C387.69 409.731 396.273 365.174 395.007 346.475C393.742 327.764 393.443 322.696 394.11 320.007C394.777 317.329 395.283 314.766 394.927 313.157C394.766 312.387 394.248 311.054 393.834 309.56C393.788 309.422 393.753 309.272 393.719 309.123C393.65 308.836 393.581 308.548 393.512 308.261C393.489 308.169 393.477 308.077 393.454 307.985C393.397 307.652 393.339 307.307 393.304 306.974C393.304 306.916 393.304 306.87 393.293 306.813C393.258 306.445 393.247 306.077 393.258 305.721C393.258 305.698 393.258 305.675 393.258 305.641C393.27 305.261 393.316 304.894 393.397 304.537C393.42 304.468 393.443 304.365 393.466 304.239C393.466 304.216 393.466 304.204 393.466 304.181C393.489 304.055 393.523 303.894 393.558 303.71C393.558 303.687 393.558 303.664 393.569 303.641C393.65 303.25 393.742 302.767 393.857 302.181C393.857 302.135 393.868 302.101 393.88 302.055C393.937 301.756 394.006 301.434 394.064 301.09C394.087 300.986 394.11 300.871 394.133 300.756C395.79 311.697 397.297 320.961 398.206 325.087C401.07 338.096 404.66 363.978 405.247 387.148C405.822 410.317 405.891 414.179 405.523 415.604C405.155 417.029 403.164 419.178 403.924 421.04C404.085 421.419 404.257 421.753 404.453 422.052C404.453 422.052 404.085 422.764 404.039 423.477C404.004 424.189 403.786 428.005 403.763 428.384C403.763 428.453 403.774 428.545 403.809 428.671C403.786 428.694 403.763 428.717 403.751 428.729L403.59 428.511V428.499ZM406.501 65.9348C406.443 64.6591 406.397 63.4179 406.363 62.2341L406.501 65.9348ZM364.806 40.0299C364.806 40.0299 364.829 40.0185 364.818 39.9955C364.76 39.984 364.933 39.869 364.967 39.8346C364.967 39.8346 364.967 39.8346 364.979 39.8346C365.025 39.8231 365.117 39.7771 365.324 39.6967C365.462 39.6507 365.623 39.5817 365.807 39.5013C365.876 39.7771 365.957 40.0529 366.037 40.3288L364.691 40.2943C364.691 40.2943 364.703 40.2368 364.714 40.2253C364.737 40.1564 364.772 40.0989 364.795 40.0414L364.806 40.0299ZM365.658 47.167L365.45 46.9601C365.381 46.8797 365.324 46.7533 365.255 46.6613L365.163 46.5119C365.209 46.5809 365.151 46.4429 365.14 46.4085L365.048 46.0982C364.91 45.6959 364.852 45.2362 364.783 44.8225C364.657 43.972 364.576 43.156 364.507 42.4549C364.507 42.363 364.507 42.2825 364.507 42.1906L366.728 42.5124L366.658 42.2596C366.728 42.4894 366.797 42.7078 366.877 42.9376C367.36 45.0753 367.694 46.8912 367.97 48.4657C367.073 48.1899 366.221 47.7072 365.669 47.1555L365.658 47.167ZM315.806 213.445C318.153 211.687 319.614 210.492 320.626 208.63C321.639 206.768 322.191 204.63 323.123 203.435C323.917 202.424 347.134 184.15 353.98 178.771C353.98 178.771 354.831 179.036 355.567 178.771C355.89 178.656 357.546 177.07 359.295 175.335C359.617 180.265 359.813 183.472 359.778 183.932C359.64 186.368 356.384 193.229 355.844 195.229C355.637 195.976 355.119 199.079 354.509 202.964H354.44C354.44 202.964 354.44 203.171 354.417 203.515C353.404 209.917 352.173 218.146 351.644 221.536C350.758 227.11 352.714 228.133 353.14 228.133H353.899C353.865 231.937 353.876 235.201 353.957 237.017C354.29 243.821 357.558 308.836 359.295 322.11C361.032 335.373 362.402 361.588 360.998 384.838C359.606 408.076 359.341 411.949 358.858 413.352C358.375 414.754 356.212 416.73 356.81 418.661C357.029 419.351 357.293 419.914 357.661 420.362C357.512 420.339 357.351 420.328 357.201 420.305C357.201 420.305 356.787 420.983 356.695 421.695C356.603 422.408 356.131 426.212 356.085 426.591C356.062 426.775 356.143 427.2 356.511 427.695C356.212 428.051 355.901 428.396 355.579 428.706L355.418 428.488C355.337 428.373 355.234 428.304 355.119 428.246C355.119 428.051 355.096 427.867 355.061 427.683L310.433 217.79C310.743 217.479 311.065 217.157 311.388 216.813C312.354 215.813 313.447 215.192 315.794 213.422L315.806 213.445ZM439.877 154.717C439.084 154.981 438.037 155.039 436.875 154.993C437.853 149.66 438.6 145.695 438.623 145.523C438.957 143.799 439.302 142.075 439.624 140.362C439.647 140.213 439.682 140.075 439.705 139.926C440.027 138.213 440.349 136.501 440.66 134.823C440.798 134.076 440.936 133.329 441.074 132.57C441.074 132.559 441.074 132.547 441.074 132.536C442.765 134.271 446.896 138.351 450.002 140.155C448.667 140.742 448.564 143.132 449.266 144.396C446.527 148.131 442.248 153.935 439.866 154.717H439.877ZM463.555 162.429C463.555 162.429 463.67 162.383 463.716 162.36C463.716 162.36 463.647 162.394 463.555 162.429Z" fill="#DFE5F0"/>
</g>
<path d="M235.602 75.3928C236.891 75.048 237.662 73.7149 237.317 72.4277L231.783 51.7061C231.438 50.4189 230.437 50.1775 229.539 51.1659L221.417 60.2338C220.531 61.2221 220.082 63.0955 220.427 64.3827L223.556 76.0824C223.902 77.3696 225.236 78.1396 226.525 77.7948L235.602 75.3698V75.3928Z" fill="#2A3BB7"/>
<path d="M253.297 96.5512C251.629 95.5858 242.874 86.4835 241.447 81.1508C240.02 75.8182 239.434 73.623 239.215 72.8185C238.996 72.014 238.214 69.9683 237.19 70.2441C236.166 70.52 229.815 72.2094 229.815 72.2094C229.815 72.2094 223.464 73.8989 222.441 74.1747C221.417 74.4505 221.762 76.6112 221.98 77.4157C222.199 78.2202 222.786 80.4153 224.212 85.748C225.639 91.0806 222.59 103.332 221.624 104.998C220.657 106.665 219.449 110.745 219.921 112.503C220.393 114.262 221.474 118.307 221.474 118.307L240.78 113.158L260.085 108.01C260.085 108.01 259.004 103.964 258.532 102.206C258.061 100.447 254.977 97.5166 253.309 96.5512H253.297Z" fill="#C6D5F2"/>
<path d="M272.132 142.5C272.65 144.442 271.499 146.43 269.555 146.948L232.669 156.785C230.725 157.303 228.734 156.153 228.217 154.211L219.311 120.87C218.794 118.928 219.944 116.94 221.889 116.423L258.774 106.585C260.719 106.068 262.709 107.217 263.227 109.159L272.132 142.5Z" fill="#D0DEF5"/>
<path d="M353.922 448.588C354.44 450.53 353.289 452.518 351.345 453.035L314.459 462.873C312.515 463.391 310.524 462.241 310.007 460.299L301.102 426.958C300.584 425.016 301.734 423.028 303.679 422.511L340.564 412.673C342.509 412.156 344.499 413.305 345.017 415.247L353.922 448.588Z" fill="#2C385E"/>
<path d="M353.094 427.51C353.612 429.453 352.461 431.441 350.517 431.958L304.646 444.186C302.702 444.704 300.711 443.554 300.193 441.612L223.914 156.142C223.396 154.199 224.547 152.211 226.491 151.694L272.362 139.466C274.307 138.948 276.297 140.098 276.815 142.04L353.094 427.51Z" fill="#546FFF"/>
<path d="M331.038 409.167C331.556 411.11 330.406 413.098 328.461 413.615L314.632 417.304C312.688 417.821 310.697 416.672 310.18 414.73L244.255 167.99C243.737 166.048 244.888 164.06 246.832 163.543L260.661 159.853C262.606 159.336 264.596 160.485 265.114 162.428L331.05 409.167H331.038Z" fill="#2A3BB7"/>
<path d="M294.015 206.423L294.394 207.825C294.394 207.825 293.44 210.756 292.669 211.859C291.898 212.962 290.172 214.778 289.988 217.41C289.792 220.042 290.23 220.95 290.759 221.341C291.288 221.72 292.531 221.536 293.014 221.145C293.497 220.766 294.36 218.513 295.119 218.077C295.89 217.64 296.753 216.686 297.662 215.686C298.571 214.686 299.629 214.054 301.884 212.284C304.139 210.514 305.532 209.319 306.44 207.446C307.349 205.572 307.786 203.423 308.649 202.228C309.512 201.033 339.944 175.955 339.944 175.955L326.011 159.728C326.011 159.728 302.517 191.402 301.367 192.551C300.216 193.7 299.066 194.47 297.535 195.045C296.005 195.62 291.311 196.217 291.311 196.217L294.038 206.411L294.015 206.423Z" fill="#FFD2BA"/>
<path d="M324.515 161.727C324.515 161.727 328.68 164.83 332.614 169.002C336.549 173.174 338.125 177.461 338.125 177.461C338.125 177.461 338.988 177.736 339.713 177.461C340.426 177.185 347.479 169.484 347.629 169.289C347.778 169.094 349.469 169.622 350.298 169.048C351.126 168.473 358.374 162.278 358.421 157.888C358.467 153.486 355.222 103.205 355.222 103.205L333.305 95.0225C333.305 95.0225 331.855 96.7924 332.246 98.7117C332.626 100.631 334.743 138.741 334.927 140.752C335.122 142.764 334.352 143.338 333.972 144.292C333.592 145.246 333.305 147.165 333.305 147.165C333.305 147.165 331.441 148.464 331.176 148.774C330.923 149.073 330.992 150.625 330.992 150.625C330.992 150.625 324.595 158.773 324.124 159.532C323.652 160.29 323.767 161.152 324.526 161.738L324.515 161.727Z" fill="#154747"/>
<path d="M291.288 196.216L294.015 206.411L294.394 207.813L296.811 195.251C294.889 195.757 291.288 196.205 291.288 196.205V196.216Z" fill="#FFB1A4"/>
<path d="M325.459 456.219H353.209L359.18 426.165C359.18 426.165 358.824 423.775 357.811 423.557C356.799 423.338 355.085 427.797 352.703 429.372C350.321 430.946 343.073 437.061 339.829 439.21C336.584 441.359 334.72 443.37 333.789 443.876C332.857 444.382 331.994 445.531 331.557 446.531C331.119 447.531 325.447 456.208 325.447 456.208L325.459 456.219Z" fill="#663733"/>
<path d="M359.226 425.579C357.305 425.579 355.774 428.257 354.244 429.889C352.714 431.521 339.437 441.094 337.343 442.336C335.261 443.577 334.973 444.83 335.445 446.554C335.928 448.277 337.608 452.392 337.343 456.23H384.825C384.825 456.23 385.596 448.277 385.308 443.106C385.021 437.934 382.674 425.579 382.674 425.579H359.238H359.226Z" fill="#854842"/>
<path d="M351.38 456.219H384.837C384.837 456.219 385.608 448.266 385.32 443.095C385.24 441.578 384.975 439.44 384.641 437.176C377.991 440.497 356.557 443.301 351.38 456.208V456.219Z" fill="#663733"/>
<path d="M384.1 433.716C379.947 434.509 366.578 438.439 364.553 456.219H365.715C367.717 439.071 380.361 435.52 384.273 434.831C384.215 434.451 384.158 434.084 384.089 433.716H384.1Z" fill="#663733"/>
<path d="M336.676 456.22C336.676 456.22 336.561 453.3 335.756 450.071C334.95 446.841 333.869 445.83 333.443 445.255C333.018 444.681 331.717 444.244 330.786 444.819C329.854 445.393 326.667 446.899 323.94 447.83C321.213 448.761 313.022 450.059 312.446 456.208H336.676V456.22Z" fill="#854842"/>
<path d="M358.743 434.75C358.743 435.543 358.11 436.175 357.316 436.175C356.522 436.175 355.89 435.543 355.89 434.75C355.89 433.957 356.522 433.325 357.316 433.325C358.11 433.325 358.743 433.957 358.743 434.75Z" fill="#4A2825"/>
<path d="M357.949 434.141C358.237 434.521 358.168 435.061 357.788 435.348C357.408 435.636 356.867 435.567 356.58 435.187L352.127 429.372C351.84 428.993 351.909 428.453 352.288 428.165C352.668 427.878 353.209 427.947 353.496 428.326L357.949 434.141Z" fill="#BD8255"/>
<path d="M354.072 437.554C354.072 438.347 353.439 438.979 352.645 438.979C351.852 438.979 351.219 438.347 351.219 437.554C351.219 436.761 351.852 436.129 352.645 436.129C353.439 436.129 354.072 436.761 354.072 437.554Z" fill="#4A2825"/>
<path d="M353.289 436.945C353.577 437.325 353.508 437.865 353.128 438.152C352.748 438.439 352.208 438.37 351.92 437.991L347.859 432.682C347.571 432.302 347.64 431.762 348.02 431.475C348.399 431.187 348.94 431.256 349.228 431.636L353.289 436.945Z" fill="#BD8255"/>
<path d="M349.401 440.37C349.401 441.163 348.768 441.796 347.975 441.796C347.181 441.796 346.548 441.163 346.548 440.37C346.548 439.577 347.181 438.945 347.975 438.945C348.768 438.945 349.401 439.577 349.401 440.37Z" fill="#4A2825"/>
<path d="M348.619 439.762C348.906 440.141 348.837 440.681 348.457 440.968C348.078 441.256 347.537 441.187 347.249 440.808L343.568 435.992C343.28 435.613 343.349 435.073 343.729 434.785C344.108 434.498 344.649 434.567 344.937 434.946L348.619 439.762Z" fill="#BD8255"/>
<path d="M344.729 443.175C344.729 443.968 344.097 444.6 343.303 444.6C342.509 444.6 341.876 443.968 341.876 443.175C341.876 442.382 342.52 441.75 343.303 441.75C344.085 441.75 344.729 442.382 344.729 443.175Z" fill="#4A2825"/>
<path d="M343.947 442.577C344.235 442.956 344.166 443.497 343.786 443.784C343.406 444.071 342.866 444.002 342.578 443.623L339.287 439.302C339 438.922 339.069 438.382 339.449 438.095C339.828 437.808 340.369 437.877 340.657 438.256L343.947 442.577Z" fill="#BD8255"/>
<path d="M340.07 445.991C340.07 446.784 339.437 447.416 338.643 447.416C337.85 447.416 337.217 446.784 337.217 445.991C337.217 445.198 337.861 444.565 338.643 444.565C339.426 444.565 340.07 445.198 340.07 445.991Z" fill="#4A2825"/>
<path d="M339.276 445.382C339.564 445.761 339.495 446.301 339.115 446.588C338.736 446.876 338.195 446.807 337.907 446.428L334.996 442.6C334.709 442.221 334.778 441.681 335.158 441.394C335.537 441.106 336.078 441.175 336.366 441.555L339.276 445.382Z" fill="#BD8255"/>
<path d="M312.434 456.219L312.009 460.908C312.009 460.908 312.227 462.367 313.297 462.367H354.072C354.072 462.367 357.581 459.287 358.133 459.287C358.685 459.287 361.262 462.367 361.262 462.367H385.366C385.366 462.367 386.309 461.115 386.401 460.471C386.493 459.828 385.113 452.495 385.113 452.495C385.113 452.495 370.467 453.15 367.521 453.575C364.576 454.001 359.686 456.207 356.741 456.207H312.446L312.434 456.219Z" fill="#BD8255"/>
<path d="M373.608 456.219H401.359L407.33 426.165C407.33 426.165 406.973 423.775 405.961 423.557C404.948 423.338 403.234 427.797 400.852 429.372C398.471 430.946 391.223 437.061 387.978 439.21C384.734 441.359 382.87 443.37 381.938 443.876C381.006 444.382 380.143 445.531 379.706 446.531C379.269 447.531 373.597 456.208 373.597 456.208L373.608 456.219Z" fill="#663733"/>
<path d="M407.387 425.579C405.466 425.579 403.936 428.257 402.405 429.889C400.875 431.521 387.598 441.094 385.504 442.336C383.422 443.577 383.134 444.83 383.606 446.554C384.089 448.277 385.769 452.392 385.504 456.23H432.986C432.986 456.23 433.757 448.277 433.469 443.106C433.182 437.934 430.835 425.579 430.835 425.579H407.399H407.387Z" fill="#854842"/>
<path d="M432.249 433.716C428.096 434.509 414.727 438.439 412.702 456.219H413.864C415.866 439.071 428.499 435.52 432.422 434.831C432.365 434.451 432.307 434.084 432.249 433.716Z" fill="#663733"/>
<path d="M384.826 456.22C384.826 456.22 384.711 453.3 383.905 450.071C383.1 446.841 382.018 445.83 381.593 445.255C381.167 444.681 379.867 444.244 378.935 444.819C378.003 445.393 374.816 446.899 372.089 447.83C369.363 448.761 361.171 450.059 360.596 456.208H384.826V456.22Z" fill="#854842"/>
<path d="M406.904 434.75C406.904 435.543 406.271 436.175 405.477 436.175C404.684 436.175 404.051 435.543 404.051 434.75C404.051 433.957 404.695 433.325 405.477 433.325C406.26 433.325 406.904 433.957 406.904 434.75Z" fill="#4A2825"/>
<path d="M406.11 434.141C406.398 434.521 406.329 435.061 405.949 435.348C405.569 435.636 405.029 435.567 404.741 435.187L400.288 429.372C400.001 428.993 400.07 428.453 400.45 428.165C400.829 427.878 401.37 427.947 401.658 428.326L406.11 434.141Z" fill="#BD8255"/>
<path d="M402.233 437.554C402.233 438.347 401.6 438.979 400.807 438.979C400.013 438.979 399.38 438.347 399.38 437.554C399.38 436.761 400.024 436.129 400.807 436.129C401.589 436.129 402.233 436.761 402.233 437.554Z" fill="#4A2825"/>
<path d="M401.44 436.945C401.727 437.325 401.658 437.865 401.279 438.152C400.899 438.439 400.358 438.37 400.07 437.991L396.009 432.682C395.722 432.302 395.791 431.762 396.17 431.475C396.55 431.187 397.091 431.256 397.378 431.636L401.44 436.945Z" fill="#BD8255"/>
<path d="M397.562 440.37C397.562 441.163 396.929 441.796 396.136 441.796C395.342 441.796 394.709 441.163 394.709 440.37C394.709 439.577 395.342 438.945 396.136 438.945C396.929 438.945 397.562 439.577 397.562 440.37Z" fill="#4A2825"/>
<path d="M396.78 439.762C397.067 440.141 396.998 440.681 396.619 440.968C396.239 441.256 395.698 441.187 395.411 440.808L391.729 435.992C391.441 435.613 391.51 435.073 391.89 434.785C392.27 434.498 392.81 434.567 393.098 434.946L396.78 439.762Z" fill="#BD8255"/>
<path d="M392.89 443.175C392.89 443.968 392.258 444.6 391.464 444.6C390.67 444.6 390.037 443.968 390.037 443.175C390.037 442.382 390.67 441.75 391.464 441.75C392.258 441.75 392.89 442.382 392.89 443.175Z" fill="#4A2825"/>
<path d="M392.108 442.577C392.396 442.956 392.327 443.497 391.947 443.784C391.567 444.071 391.027 444.002 390.739 443.623L387.449 439.302C387.161 438.922 387.23 438.382 387.61 438.095C387.989 437.808 388.53 437.877 388.818 438.256L392.108 442.577Z" fill="#BD8255"/>
<path d="M388.219 445.991C388.219 446.784 387.587 447.416 386.793 447.416C385.999 447.416 385.366 446.784 385.366 445.991C385.366 445.198 385.999 444.565 386.793 444.565C387.587 444.565 388.219 445.198 388.219 445.991Z" fill="#4A2825"/>
<path d="M387.438 445.382C387.725 445.761 387.656 446.301 387.276 446.588C386.897 446.876 386.356 446.807 386.068 446.428L383.158 442.6C382.87 442.221 382.939 441.681 383.319 441.394C383.698 441.106 384.239 441.175 384.527 441.555L387.438 445.382Z" fill="#BD8255"/>
<path d="M360.596 456.219L360.17 460.908C360.17 460.908 360.389 462.367 361.459 462.367H402.233C402.233 462.367 405.753 459.287 406.294 459.287C406.835 459.287 409.424 462.367 409.424 462.367H433.527C433.527 462.367 434.47 461.115 434.562 460.471C434.654 459.828 433.274 452.495 433.274 452.495C433.274 452.495 418.628 453.15 415.682 453.575C412.737 454.001 407.847 456.207 404.902 456.207H360.607L360.596 456.219Z" fill="#BD8255"/>
<path d="M339.92 201.768C339.92 201.768 340.622 229.156 341.347 235.994C342.071 242.832 348.951 308.146 351.437 321.478C353.922 334.809 356.74 361.139 356.648 384.493C356.545 407.835 356.51 411.731 356.096 413.133C355.694 414.535 353.646 416.535 354.347 418.466C355.049 420.396 356.119 421.35 358.42 421.546C360.71 421.741 380.349 423.396 382.501 423.58C384.652 423.764 385.768 419.098 385.699 418.224C385.63 417.351 384.215 415.213 384.468 412.351C384.71 409.49 390.807 364.737 388.495 345.934C386.194 327.144 385.607 322.041 386.125 319.351C386.642 316.662 386.999 314.088 386.562 312.467C386.125 310.847 384.019 306.767 384.548 303.79C385.089 300.802 392.107 246.901 392.648 237.143C393.189 227.386 388.61 203.101 388.61 203.101L339.943 201.757L339.92 201.768Z" fill="#3F4E7A"/>
<path d="M391.797 246.085H374.401C374.401 246.085 373.457 286.459 385.25 308.847C384.698 307.192 384.261 305.342 384.537 303.79C384.986 301.342 389.795 264.565 391.797 246.085Z" fill="#2C385E"/>
<path d="M383.905 253.945C383.421 264.093 380.246 283.436 380.062 286.78C379.878 290.125 381.339 305.824 381.339 305.824C381.339 305.824 381.258 299.043 381.189 297.411C381.109 295.779 380.706 287.78 380.764 286.711C380.821 285.631 383.03 267.472 383.352 265.013C383.675 262.553 383.916 253.945 383.916 253.945H383.905Z" fill="#2C385E"/>
<path d="M383.513 309.974C383.513 309.974 380.82 311.985 380.027 311.916C379.233 311.847 373.779 308.939 368.625 305.112C373.285 311.422 380.82 315.364 381.499 315.065C382.178 314.766 383.513 309.974 383.513 309.974Z" fill="#2C385E"/>
<path d="M380.43 308.847L377.795 303.284C377.795 303.284 376.196 306.031 380.43 308.847Z" fill="#2C385E"/>
<path d="M381.131 422.281L380.579 422.132C381.258 419.615 381.062 416.833 380.936 415.178C380.913 414.914 380.901 414.673 380.89 414.466C380.855 413.88 381.373 408.513 382.282 399.054C383.57 385.676 385.354 367.368 385.768 359.266C386.447 346.244 382.328 319.512 382.282 319.236C382.282 319.236 383.616 324.144 384.433 330.729C385.538 339.671 386.734 351.761 386.343 359.289C385.917 367.403 384.146 385.722 382.857 399.1C382.063 407.34 381.43 413.857 381.465 414.42C381.465 414.627 381.5 414.857 381.511 415.121C381.638 416.822 381.845 419.661 381.131 422.27V422.281Z" fill="#2C385E"/>
<path d="M354.819 420.109C354.819 420.109 354.439 420.799 354.393 421.512C354.347 422.224 354.082 426.051 354.059 426.43C354.036 426.81 354.462 428.281 357.327 429.2C360.192 430.12 370.063 431.901 373.791 432.165C377.519 432.418 382.983 431.935 383.628 431.74C384.261 431.545 384.56 430.752 384.617 429.982C384.663 429.223 385.054 423.626 385.1 422.96C385.146 422.293 384.87 421.592 384.87 421.592C384.87 421.592 371.513 422.121 354.83 420.109H354.819Z" fill="#6077BA"/>
<path d="M370.121 431.728C371.582 431.935 372.871 432.096 373.791 432.165C374.482 432.211 375.229 432.234 376 432.234L376.737 421.614C374.988 421.58 373.009 421.522 370.834 421.419L370.121 431.728Z" fill="#9CB1F0"/>
<path d="M371.928 431.97C372.641 432.062 373.274 432.119 373.792 432.165C374.022 432.177 374.263 432.2 374.505 432.2L375.241 421.58C374.424 421.557 373.561 421.534 372.653 421.5L371.928 431.97Z" fill="#D94F4F"/>
<path d="M368.948 206.135C368.948 206.135 371.962 233.362 373.251 240.119C374.539 246.877 386.919 311.375 390.509 324.454C394.098 337.532 399.137 363.529 401.001 386.802C402.865 410.075 403.164 413.948 402.865 415.396C402.566 416.844 400.702 418.982 401.577 420.855C402.451 422.729 403.59 423.591 405.891 423.591H430.052C432.215 423.591 432.928 418.856 432.79 417.982C432.652 417.109 431.064 415.109 431.064 412.236C431.064 409.363 433.365 364.253 429.477 345.715C425.588 327.177 424.587 322.155 424.875 319.42C425.162 316.684 425.312 314.11 424.736 312.524C424.161 310.938 421.722 307.065 421.998 304.042C422.274 301.02 424.736 246.716 424.437 236.947C424.138 227.178 417.534 203.365 417.534 203.365L368.925 206.124L368.948 206.135Z" fill="#3F4E7A"/>
<path d="M417.177 254.428C417.546 264.576 416.015 284.114 416.108 287.47C416.2 290.826 418.984 306.341 418.984 306.341C418.984 306.341 418.34 299.583 418.121 297.974C417.902 296.354 416.832 288.424 416.786 287.343C416.752 286.263 417.431 267.989 417.534 265.507C417.649 263.024 417.166 254.428 417.166 254.428H417.177Z" fill="#2C385E"/>
<path d="M421.503 310.283C421.503 310.283 418.984 312.513 418.201 312.513C417.419 312.513 411.735 310.076 406.271 306.697C411.448 312.582 419.283 315.892 419.927 315.535C420.571 315.179 421.503 310.295 421.503 310.295V310.283Z" fill="#2C385E"/>
<path d="M418.34 309.421L415.245 304.111C415.245 304.111 413.876 306.985 418.34 309.421Z" fill="#2C385E"/>
<path d="M428.603 422.396L428.039 422.292C428.51 419.729 428.073 416.971 427.809 415.328C427.763 415.063 427.728 414.834 427.705 414.627C427.625 414.052 427.682 408.65 427.797 399.157C427.958 385.722 428.188 367.322 427.924 359.22C427.498 346.187 421.136 319.891 421.078 319.627C421.078 319.627 422.827 324.408 424.185 330.901C426.037 339.716 428.257 351.657 428.499 359.197C428.764 367.311 428.545 385.722 428.372 399.169C428.269 407.455 428.2 413.995 428.269 414.546C428.303 414.742 428.338 414.983 428.372 415.236C428.637 416.914 429.086 419.729 428.603 422.396Z" fill="#2C385E"/>
<path d="M402.152 421.844C402.152 421.844 401.818 422.556 401.818 423.269V428.199C401.818 428.579 402.348 430.015 405.27 430.739C408.192 431.452 418.167 432.555 421.906 432.555C425.646 432.555 431.065 431.693 431.686 431.452C432.307 431.21 432.549 430.394 432.549 429.636V422.602C432.549 421.936 432.227 421.246 432.227 421.246C432.227 421.246 418.938 422.694 402.152 421.844Z" fill="#6077BA"/>
<path d="M418.225 432.394C419.697 432.509 420.997 432.578 421.918 432.578C422.608 432.578 423.356 432.544 424.127 432.498V421.844C422.378 421.936 420.399 422.005 418.236 422.062V432.394H418.225Z" fill="#9CB1F0"/>
<path d="M420.043 432.509C420.756 432.543 421.4 432.566 421.907 432.566C422.137 432.566 422.378 432.566 422.62 432.566V421.924C421.803 421.958 420.94 421.993 420.031 422.016V432.52L420.043 432.509Z" fill="#D94F4F"/>
<path d="M363.862 235.947L373.009 238.671L389.565 231.534L373.561 241.671L363.862 235.947Z" fill="#2C385E"/>
<path d="M373.286 240.614L373.079 240.43C372.906 240.269 368.902 236.58 368.131 232.362C367.372 228.236 365.658 209.043 365.635 208.848L366.21 208.802C366.233 208.997 367.947 228.156 368.695 232.259C369.339 235.753 372.446 239.005 373.263 239.81L374.586 238.454C374.448 236.856 373.125 220.984 372.25 207.71L372.826 207.676C373.734 221.594 375.15 238.373 375.173 238.534V238.66L373.286 240.603V240.614Z" fill="#2C385E"/>
<path d="M378.957 240.545C378.957 240.545 388.311 237.602 393.58 237.166C393.58 237.166 387.459 234.511 378.957 240.545Z" fill="#2C385E"/>
<path d="M370.018 241.441L361.826 239.039C361.826 239.039 364.668 238.936 365.634 239.039C366.601 239.143 370.018 241.441 370.018 241.441Z" fill="#2C385E"/>
<path d="M408.676 203.883C408.676 203.883 416.211 226.834 417.166 248.394C417.166 248.394 417.742 222.742 410.355 203.779L408.664 203.894L408.676 203.883Z" fill="#2C385E"/>
<path d="M409.309 233.546C409.309 233.546 417.558 232.925 421.723 230.845C421.723 230.845 417.811 236.039 409.309 233.546Z" fill="#2C385E"/>
<path d="M411.713 236.672C411.713 236.672 417.615 236.224 420.606 234.729C420.606 234.729 417.811 238.453 411.713 236.672Z" fill="#2C385E"/>
<path d="M417.948 201.94L375.793 203.94V201.55C375.793 200.642 375.057 199.906 374.148 199.906H360.042C359.133 199.906 358.397 200.642 358.397 201.55V204.756L343.785 205.446C343.785 205.446 343.452 206.836 343.015 208.641C343.072 208.664 343.13 208.698 343.187 208.71C343.624 208.813 349.308 209.514 358.397 209.848C358.455 210.71 359.156 211.388 360.031 211.388H374.136C374.988 211.388 375.678 210.744 375.758 209.916C380.199 209.79 384.963 209.56 389.956 209.158C416.05 207.055 418.282 204.894 418.489 204.469C418.604 204.228 418.742 203.986 418.834 203.687C418.523 202.998 418.224 202.389 417.936 201.929L417.948 201.94Z" fill="#2C385E"/>
<path d="M343.809 197.723C343.809 197.723 342.647 205.526 342.578 205.998C342.509 206.48 342.371 207.296 343.199 207.503C344.016 207.71 363.874 210.055 389.968 207.963C416.062 205.871 418.294 203.699 418.501 203.274C418.708 202.849 418.984 202.446 418.915 201.688C418.846 200.929 415.97 195.045 415.97 195.045L343.821 197.711L343.809 197.723Z" fill="#ED9258"/>
<path d="M360.043 198.952H374.148C375.057 198.952 375.793 199.688 375.793 200.596V208.813C375.793 209.721 375.057 210.456 374.148 210.456H360.043C359.134 210.456 358.397 209.721 358.397 208.813V200.596C358.397 199.688 359.134 198.952 360.043 198.952Z" fill="#404040"/>
<path d="M396.627 198.071L391.297 198.532L392.267 209.719L397.597 209.258L396.627 198.071Z" fill="#3F4E7A"/>
<path d="M348.085 198.385L347.115 209.571L352.434 210.031L353.404 198.845L348.085 198.385Z" fill="#3F4E7A"/>
<path d="M383.525 48.9939C383.525 48.9939 383.26 71.5313 389.289 86.495H356.131L357.96 63.0381L383.536 48.9824L383.525 48.9939Z" fill="#FFD2BA"/>
<path d="M383.524 48.9941L357.948 63.0499L357.224 72.4165C358.765 73.968 360.284 75.3817 360.963 75.646C362.608 76.2781 366.163 75.7609 368.453 74.1864C377.059 68.2446 381.638 60.2571 383.686 55.7289C383.49 51.649 383.513 49.0056 383.513 49.0056L383.524 48.9941Z" fill="#FFB1A4"/>
<path d="M343.43 41.0062C345.489 48.3961 345.627 51.8669 347.813 55.6136C350.011 59.3487 355.441 64.1412 356.902 65.7847C358.364 67.4282 358.962 67.9339 359.514 67.9798C360.055 68.0258 363.667 67.7959 366.268 66.6582C368.868 65.5204 382.26 52.7863 382.939 51.2808C383.617 49.7752 385.056 39.7649 385.056 39.7649C385.056 39.7649 390.394 31.5476 388.07 19.5031C385.734 7.4586 374.367 -1.22997 358.881 1.97653C343.395 5.19452 335.043 19.9743 343.418 41.0062H343.43Z" fill="#FFD2BA"/>
<path d="M375.655 19.3542C375.655 19.3542 376.254 26.3648 376.357 27.1578C376.461 27.9393 378.957 30.4792 379.337 31.7779C379.717 33.0766 380.292 38.0875 380.292 38.0875L383.203 36.0417L390.221 34.4672C390.221 34.4672 392.625 27.3072 391.026 18.6416L375.667 19.3542H375.655Z" fill="#2E2E2E"/>
<path d="M340.105 13.7454C340.105 13.7454 339.748 11.0676 340.105 9.91827C340.461 8.76899 350.908 0.632067 364.381 0.0574256C377.853 -0.517216 385.734 3.57423 389.865 10.4699C393.984 17.3656 395.399 29.3067 395.111 35.3404C395.111 35.3404 393.477 34.2486 392.718 33.4096C391.66 40.6271 386.85 50.9247 383.917 59.3374L383.571 48.764L383.802 47.5803L386.862 38.4779L384.618 26.6173L367.165 15.0786L340.105 13.7339V13.7454Z" fill="#2E2E2E"/>
<path d="M382.903 36.6738C382.903 36.6738 382.938 33.1455 383.11 32.1571C383.283 31.1687 383.697 30.2723 384.859 29.3184C386.021 28.3645 387.16 27.8128 387.839 28.1921C388.518 28.5713 390.071 31.2377 390.301 32.9156C390.543 34.5936 388.449 43.2822 387.805 44.7532C387.149 46.2243 383.559 47.8678 383.387 47.6609C383.214 47.4541 382.903 36.6738 382.903 36.6738Z" fill="#FFD2BA"/>
<path d="M364.818 33.8119C362.77 35.4209 362.689 37.9723 362.827 38.5814C362.965 39.202 367.199 39.3169 369.167 38.3286C371.134 37.3402 371.652 35.0646 371.548 34.3291C370.432 33.2487 368.384 32.1339 364.818 33.8119Z" fill="white"/>
<path d="M370.847 35.5586C370.847 37.1791 369.443 38.4893 367.717 38.4893C365.991 38.4893 364.588 37.1791 364.588 35.5586C364.588 33.9381 365.991 32.6279 367.717 32.6279C369.443 32.6279 370.847 33.9381 370.847 35.5586Z" fill="#2E2E2E"/>
<path d="M362.126 38.4897C362.126 38.4897 363.104 34.2603 366.578 33.4903C370.053 32.7203 371.56 35.0993 371.56 35.0993L372.573 33.8121C372.573 33.8121 370.018 31.4791 366.417 32.4215C362.851 33.3639 361.919 36.9841 362.114 38.4782L362.126 38.4897Z" fill="#1C1C1C"/>
<path d="M356.522 31.6514C356.522 31.6514 358.03 33.0765 359.974 32.6398C361.918 32.203 366.187 28.6173 372.239 29.3068C372.239 29.3068 368.66 27.6864 365.151 28.261C359.997 29.1 356.522 31.6514 356.522 31.6514Z" fill="#1C1C1C"/>
<path d="M345.178 40.6962C345.178 40.6962 345.419 41.7075 346.754 42.4086C348.583 43.374 351.517 42.581 351.667 41.6616C351.816 40.7536 351.356 39.4549 350.585 38.8458C349.814 38.2367 346.041 37.4207 345.178 40.6847V40.6962Z" fill="white"/>
<path d="M351.311 39.8345C351.633 41.0643 350.966 42.3055 349.827 42.6043C348.688 42.9031 347.491 42.1561 347.169 40.9264C346.847 39.6966 347.514 38.4554 348.653 38.1566C349.804 37.8578 350.989 38.6048 351.311 39.8345Z" fill="#2E2E2E"/>
<path d="M351.667 40.4779C351.667 40.4779 350.114 37.915 347.675 38.593C345.466 39.2136 345.339 41.5352 345.339 41.5352L344.051 41.041C344.051 41.041 344.534 38.1333 347.652 37.7311C350.459 37.3633 351.472 39.1677 351.644 40.4893L351.667 40.4779Z" fill="#1C1C1C"/>
<path d="M350.183 33.7549C350.183 33.7549 349.458 34.8697 347.997 34.9616C346.536 35.0536 343.924 34.7892 341.715 36.0419L341.52 35.3524C341.52 35.3524 343.268 33.9158 345.431 33.5825C348.239 33.1457 350.183 33.7664 350.183 33.7664V33.7549Z" fill="#1C1C1C"/>
<path d="M355.406 52.1999C355.406 52.1999 354.912 51.5448 354.406 51.3035C353.911 51.0621 352.507 50.1887 352.645 49.8094C352.783 49.4302 356.051 49.0739 357.8 49.2922C359.548 49.5106 360.745 50.0278 360.561 50.4415C360.377 50.8668 357.823 52.016 355.406 52.1884V52.1999Z" fill="#FFB8A3"/>
<path d="M352.518 38.4893C352.518 38.4893 353.162 41.5578 353.162 45.1436C353.162 48.7294 352.633 49.0397 352.84 49.7982C353.047 50.5452 354.37 50.7291 354.9 51.3727C355.429 52.0163 355.625 52.7404 355.625 52.7404C355.625 52.7404 354.532 51.6715 353.657 51.3267C352.794 50.982 351.943 50.6831 351.897 49.8442C351.851 49.0052 353.013 45.6148 352.518 38.4893Z" fill="#DB8472"/>
<path d="M357.327 50.9363C357.327 50.9363 356.257 50.5915 356.671 50.1203C357.086 49.6376 359.272 50.6145 359.272 50.6145L357.327 50.9478V50.9363Z" fill="#DB8472"/>
<path d="M354.026 57.7512C354.026 57.7512 353.738 57.8316 353.761 58.073C353.784 58.3143 354.417 58.5901 354.935 58.5212C355.452 58.4522 357.949 57.6362 360.825 56.5214C363.702 55.4066 366.796 54.1654 368.004 53.3379C369.201 52.5219 369.523 51.8668 369.374 51.6944C369.224 51.5221 368.499 51.614 368.361 51.6944C368.223 51.7749 367.797 52.5334 367.579 52.7288C367.36 52.9242 363.471 55.1768 358.628 56.9352C356.143 57.8431 354.808 58.0385 354.704 57.981C354.601 57.9351 354.175 57.5673 354.026 57.7397V57.7512Z" fill="#D67061"/>
<path d="M361.378 60.9005C361.378 60.9005 359.939 59.9006 359.042 60.0615C358.156 60.2224 357.765 60.751 357.926 60.9005C358.087 61.0614 358.858 62.0153 361.378 60.9005Z" fill="#FFB8A3"/>
<path d="M388.518 33.7318C388.518 33.7318 387.31 31.3068 386.608 31.6056C385.918 31.9159 385.538 33.8697 385.607 34.4098C385.676 34.9615 386.493 35.72 386.401 36.0073C386.297 36.2947 385.377 35.8809 385.17 36.3291C384.963 36.7774 385.423 37.5474 385.423 38.0875C385.423 38.6277 385.342 40.7309 385.342 41.8112C385.342 42.225 387.436 41.3745 387.804 40.0298C388.23 38.4898 388.828 35.1339 388.518 33.7318Z" fill="#FFB1A4"/>
<path d="M344.833 21.6063C344.833 21.6063 348.457 32.2372 355.625 35.1564C356.005 32.8578 355.625 24.6174 355.625 24.6174C355.625 24.6174 358.858 28.3411 362.332 29.2146C362.332 29.2146 361.895 28.0193 361.585 27.3757C367.073 28.9847 372.572 30.4328 372.572 30.4328C372.572 30.4328 371.583 27.2033 370.455 24.6634C370.455 24.6634 376.139 29.2146 377.473 29.9731C377.473 29.9731 377.853 29.249 377.669 28.0538C377.669 28.0538 385.722 32.5015 385.722 32.1912C385.722 31.8809 383.951 27.1459 383.951 27.1459C383.951 27.1459 379.268 3.67751 369.408 2.7236C359.548 1.7697 340.369 12.0558 340.369 12.0558C340.369 12.0558 332.557 23.0199 338.264 37.0067C338.264 37.0067 339.126 34.4783 339.414 32.9382C339.828 35.8344 343.487 38.4663 343.487 38.4663C343.487 38.4663 342.9 31.3178 343.153 28.1227C343.153 28.1227 344.396 29.8122 345.546 30.4098L344.833 21.5833V21.6063Z" fill="#2E2E2E"/>
<path d="M365.945 84.4948H374.436L392.729 71.3125C392.729 71.3125 400.403 74.7833 409.308 77.9094C418.213 81.0354 425.001 81.3113 426.646 83.0237C428.291 84.7361 425.277 110.331 422.355 133.328C419.432 156.325 414.681 183.977 414.773 185.068C414.865 186.16 418.523 191.367 418.523 193.01C418.523 194.654 416.51 198.389 414.324 198.481C412.126 198.573 383.444 204.043 364.622 203.319C345.799 202.584 344.154 200.676 344.154 200.676C344.154 200.676 341.508 196.665 341.416 195.113C341.324 193.562 345.523 183.793 345.523 183.793C345.523 183.793 336.791 115.284 335.882 108.894C334.973 102.504 333.051 95.7463 334.42 93.7465C335.79 91.7353 352.277 80.0356 352.277 80.0356L365.933 84.5063L365.945 84.4948Z" fill="white"/>
<path d="M367.671 92.7702C367.671 93.5977 366.992 94.2758 366.163 94.2758C365.335 94.2758 364.656 93.5977 364.656 92.7702C364.656 91.9427 365.335 91.2646 366.163 91.2646C366.992 91.2646 367.671 91.9427 367.671 92.7702Z" fill="#B8C1E3"/>
<path d="M369.177 128.846C369.177 129.674 368.499 130.352 367.67 130.352C366.842 130.352 366.163 129.674 366.163 128.846C366.163 128.019 366.842 127.341 367.67 127.341C368.499 127.341 369.177 128.019 369.177 128.846Z" fill="#B8C1E3"/>
<path d="M370.685 166.21C370.685 167.037 370.006 167.715 369.178 167.715C368.35 167.715 367.671 167.037 367.671 166.21C367.671 165.382 368.35 164.704 369.178 164.704C370.006 164.704 370.685 165.382 370.685 166.21Z" fill="#B8C1E3"/>
<path d="M368.948 199.585C368.948 200.412 368.269 201.09 367.441 201.09C366.612 201.09 365.934 200.412 365.934 199.585C365.934 198.757 366.612 198.079 367.441 198.079C368.269 198.079 368.948 198.757 368.948 199.585Z" fill="#B8C1E3"/>
<path d="M383.984 60.2686L384.341 64.1876C384.341 64.1876 365.979 84.3575 365.933 84.4954C365.887 84.6333 380.682 97.4019 381.235 97.3674C381.787 97.3214 382.328 96.9077 382.558 96.3216C382.788 95.7239 393.982 72.1866 394.063 71.635C394.155 71.0833 394.155 69.8536 393.522 69.6697C392.878 69.4858 389.127 66.4747 388.655 65.7047C388.184 64.9231 387.309 62.5097 386.895 61.958C386.481 61.4063 383.973 60.28 383.973 60.28L383.984 60.2686Z" fill="white"/>
<path d="M365.944 84.4953C365.944 84.4953 361.009 79.0592 357.085 74.2322L357.385 70.3477C357.385 70.3477 355.486 71.5889 355.21 72.0946C354.934 72.6003 354.52 75.0942 354.163 75.9217C353.795 76.7492 351.195 78.8064 351.103 79.5304C351.011 80.266 356.269 97.4133 356.591 97.6431C356.913 97.873 357.638 97.7351 357.96 97.3673C358.282 96.9995 365.956 84.4953 365.956 84.4953H365.944Z" fill="white"/>
<path d="M357.005 98.0106C356.775 98.0106 356.568 97.9646 356.418 97.8497C356.337 97.7922 356.084 97.6198 353.415 88.8393C352.817 86.874 351.632 82.9205 351.091 80.8288C350.907 80.1162 351.068 79.6565 351.091 79.5186C351.091 79.5186 351.459 80.0588 351.62 80.6679C352.61 84.472 356.257 96.4361 356.775 97.4359C356.993 97.5394 357.522 97.4359 357.741 97.1831C358.006 96.8613 362.654 89.3335 365.703 84.3571C365.749 84.2881 365.829 84.2422 365.91 84.2307C366.002 84.2307 366.082 84.2537 366.14 84.3226C366.876 85.0812 380.165 96.551 381.269 97.0912C381.706 97.0337 382.132 96.6774 382.305 96.2177C382.385 96.0108 383.605 93.4249 385.745 88.8853C388.264 83.5526 391.808 76.0248 393.212 72.9447C393.568 72.1632 394.051 71.7265 394.074 71.623C394.074 71.623 394.109 72.2896 393.66 73.2665C392.556 75.6915 390.128 80.8748 386.239 89.1151C384.445 92.9193 382.903 96.2062 382.822 96.4131C382.558 97.0912 381.936 97.5853 381.258 97.6313C380.521 97.6313 367.992 86.6901 366.002 84.9088C364.679 87.0579 358.466 97.1831 358.155 97.5394C357.891 97.8382 357.419 98.0106 357.005 98.0106Z" fill="#C6D5F2"/>
<path d="M388.667 65.6934C388.667 65.6934 390.37 71.888 390.37 83.3004C390.37 113.423 382.27 131.904 380.924 144.028C379.578 156.153 390.727 221.858 391.29 223.582C391.854 225.306 392.234 227.053 396.123 227.053H420.836C423.447 227.053 425.024 220.847 425.024 219.985C425.024 219.123 419.697 193.551 418.914 190.678C418.12 187.805 416.809 185.219 416.602 181.771C416.395 178.323 420.905 144.028 420.905 144.028C420.905 144.028 426.554 83.4038 426.105 82.7257C425.645 82.0477 424.241 80.9329 422.803 80.4272C421.365 79.9215 403.313 73.7268 398.792 71.6237C394.259 69.509 390.704 65.9692 388.667 65.6934Z" fill="#206A6A"/>
<path d="M402.6 227.064C400.518 216.399 389.093 155.728 390.209 144.35C390.589 140.477 391.67 135.88 392.913 130.559C395.547 119.342 399.148 103.976 398.895 83.4728C398.826 78.301 398.424 74.1981 397.998 71.2444C397.779 71.1295 397.572 71.0261 397.365 70.9111C397.802 73.8648 398.251 78.0827 398.309 83.4843C398.562 103.919 394.972 119.238 392.349 130.432C391.095 135.777 390.013 140.397 389.622 144.304C388.506 155.659 399.827 215.893 402.013 227.076H402.588L402.6 227.064Z" fill="#154747"/>
<path d="M419.662 92.2412C413.449 104.481 412.495 131.397 420.916 144.039C421.423 140.431 421.917 136.822 422.355 133.317C424.264 118.261 426.22 102.091 426.876 92.2412H419.662Z" fill="#154747"/>
<path d="M365.024 133.707C363.563 112.951 363.701 95.218 363.839 87.9775L363.275 88.8625C363.137 96.6086 363.08 113.79 364.472 133.742C366.37 160.819 366.405 176.139 366.117 180.932C365.968 183.552 365.312 189.103 364.782 193.562C364.299 197.608 364.035 199.906 364.069 200.274C364.138 201.113 364.713 203.343 364.736 203.434L365.266 203.297C365.266 203.297 364.679 201.009 364.61 200.228C364.587 199.895 364.944 196.849 365.323 193.62C365.852 189.149 366.508 183.598 366.658 180.966C366.945 176.162 366.911 160.808 365.013 133.707H365.024Z" fill="#C6D5F2"/>
<path d="M370.489 203.434C370.466 203.342 369.89 201.101 369.821 200.274C369.787 199.906 370.063 197.607 370.535 193.562C371.064 189.103 371.72 183.552 371.869 180.931C372.145 176.139 372.122 160.819 370.224 133.742C368.717 112.285 368.913 94.0341 369.051 87.2764C369.304 87.5292 369.476 87.5522 369.591 87.7476C369.453 94.8271 369.304 112.733 370.776 133.707C372.675 160.807 372.698 176.162 372.422 180.966C372.272 183.598 371.605 189.16 371.075 193.619C370.696 196.849 370.339 199.895 370.362 200.228C370.431 201.021 371.006 203.273 371.018 203.296L370.489 203.434Z" fill="#C6D5F2"/>
<path d="M411.344 175.473L416.924 184.15C416.763 183.403 416.648 182.621 416.602 181.782C416.567 181.288 416.648 180.162 416.774 178.599L411.344 175.473Z" fill="#154747"/>
<path d="M424.966 82.082C424.184 82.0935 421.089 84.0358 417.937 99.4362C414.784 114.837 418.075 126.054 418.892 128.318C419.708 130.57 420.744 129.134 421.975 130.375C423.206 131.605 430.742 138.995 434.101 139.546H443.961C443.961 139.546 456.502 156.038 456.847 156.728C457.192 157.418 463.417 158.027 463.566 157.28C463.704 156.533 463.497 152.97 464.187 151.257C464.878 149.545 466.926 143.454 465.902 140.649C464.878 137.845 458.021 129.019 456.237 126.824C454.454 124.628 446.504 112.584 443.087 107.044C439.658 101.505 430.546 86.7826 429.66 85.4839C428.775 84.1852 426.784 82.0705 424.966 82.0935V82.082Z" fill="#206A6A"/>
<path d="M418.351 129.168C418.236 129.168 418.133 129.099 418.098 128.984C417.649 127.743 414.324 115.779 417.684 99.3784C419.996 88.081 422.574 82.1622 425.358 81.8174C425.496 81.7944 425.646 81.9093 425.669 82.0587C425.692 82.2081 425.576 82.3461 425.427 82.369C424.012 82.5529 421.193 85.0124 418.225 99.5048C414.842 116.043 418.443 128.317 418.616 128.812C418.673 128.949 418.593 129.11 418.455 129.168C418.42 129.168 418.386 129.179 418.363 129.179L418.351 129.168Z" fill="#154747"/>
<path d="M427.762 108.217C427.762 108.217 427.958 108.24 428.28 108.309C428.602 108.378 429.074 108.458 429.626 108.585C430.178 108.699 430.8 108.883 431.49 109.044C432.169 109.205 432.882 109.412 433.607 109.619C434.32 109.849 435.034 110.056 435.701 110.251C436.035 110.343 436.357 110.458 436.667 110.55C436.978 110.642 437.266 110.745 437.53 110.837C438.589 111.205 439.29 111.538 439.29 111.538L439.256 111.688C439.256 111.688 438.497 111.653 437.381 111.481C437.104 111.435 436.794 111.4 436.472 111.331C436.15 111.274 435.816 111.216 435.471 111.147C435.126 111.079 434.769 111.01 434.401 110.918C434.044 110.814 433.687 110.711 433.319 110.607C432.594 110.389 431.881 110.171 431.214 109.929C430.88 109.826 430.558 109.688 430.259 109.561C429.96 109.435 429.672 109.309 429.419 109.194C428.384 108.734 427.739 108.309 427.739 108.309L427.774 108.217H427.762Z" fill="#154747"/>
<path d="M429.948 111.986C429.948 111.986 430.051 111.986 430.235 111.986C430.408 111.998 430.661 112.009 430.949 112.044C431.236 112.067 431.57 112.147 431.915 112.205C432.272 112.274 432.628 112.366 432.996 112.481C433.721 112.71 434.446 112.94 434.964 113.193C435.493 113.434 435.838 113.664 435.838 113.664L435.804 113.814C435.804 113.814 435.401 113.871 434.814 113.825C434.515 113.814 434.181 113.768 433.813 113.722C433.457 113.676 433.077 113.584 432.709 113.469C432.341 113.354 431.973 113.228 431.627 113.101C431.294 112.963 430.983 112.802 430.73 112.653C430.212 112.366 429.913 112.078 429.913 112.078L429.948 111.986Z" fill="#154747"/>
<path d="M430.961 114.974C430.961 114.974 431.191 114.882 431.49 114.87C431.64 114.859 431.812 114.87 431.985 114.87C432.157 114.882 432.341 114.916 432.514 114.962C432.859 115.054 433.193 115.227 433.423 115.411C433.665 115.583 433.814 115.778 433.814 115.778L433.78 115.928C433.78 115.928 433.561 116.02 433.262 116.054C432.963 116.089 432.572 116.066 432.192 115.962C432.008 115.916 431.824 115.847 431.663 115.767C431.502 115.686 431.364 115.583 431.248 115.479C431.018 115.284 430.903 115.066 430.903 115.066L430.938 114.974H430.961Z" fill="#154747"/>
<path d="M437.334 135.569C437.334 135.569 440.912 128.593 453.073 128.11C453.073 128.11 444.237 129.731 441.717 135.569H437.334Z" fill="#154747"/>
<path d="M433.641 139.879C432.341 141.316 425.932 152.199 422.676 153.291C419.42 154.395 411.574 152.061 409.652 151.993C407.731 151.924 404.671 153.061 403.21 153.199C401.748 153.337 400.517 153.923 399.781 154.107C399.056 154.291 396.951 155.199 396.306 155.153C395.662 155.107 395.306 155.429 395.432 156.199C395.57 156.98 396.571 157.796 397.307 157.796C397.307 157.796 396.076 158.026 394.753 158.302C393.43 158.578 388.679 159.67 387.401 160.405C386.124 161.129 385.02 162.049 384.985 163.049C384.939 164.048 385.71 164.692 386.216 164.646C386.723 164.6 389.599 164.278 391.923 164.186C394.259 164.094 396.445 164.6 398.274 164.37C398.274 164.37 399.229 166.014 399.459 166.382C399.689 166.749 401.288 167.657 401.288 167.657C401.288 167.657 402.887 170.76 403.394 171.082C403.9 171.404 405.085 171.944 405.085 171.944C405.085 171.944 405.948 173.358 406.224 173.725C406.5 174.093 407.294 174.633 407.8 174.771C408.306 174.909 411.539 175.909 412.345 176.116C413.15 176.323 413.852 176.691 414.726 176.484C415.589 176.277 426.185 168.979 429.568 166.83C434.964 164.37 446.469 161.991 450.128 159.348C448.344 146.522 441.994 139.408 440.67 138.546L433.641 139.868V139.879Z" fill="#FFD2BA"/>
<path d="M391.935 164.186C391.935 164.186 392.211 164.174 392.682 164.151C392.924 164.14 393.212 164.128 393.534 164.105C393.867 164.094 394.247 164.105 394.65 164.105C395.064 164.105 395.501 164.117 395.973 164.128C396.433 164.14 396.928 164.163 397.434 164.151C397.687 164.151 397.94 164.151 398.193 164.151C398.435 164.151 398.711 164.105 398.976 164.094C399.505 164.059 400.046 164.014 400.586 163.979C401.668 163.899 402.749 163.83 403.773 163.761C404.28 163.726 404.774 163.692 405.235 163.657C405.729 163.657 406.143 163.68 406.558 163.692C406.972 163.726 407.352 163.772 407.685 163.818C408.019 163.853 408.306 163.922 408.537 163.956C409.008 164.037 409.273 164.117 409.273 164.117V164.186C409.273 164.186 408.985 164.174 408.514 164.151C408.272 164.151 407.984 164.117 407.662 164.117C407.328 164.117 406.972 164.105 406.569 164.094C406.166 164.105 405.729 164.128 405.269 164.14C404.809 164.186 404.314 164.232 403.808 164.278C403.302 164.324 402.772 164.381 402.243 164.427C401.714 164.462 401.173 164.485 400.632 164.519C400.092 164.554 399.551 164.577 399.01 164.611C398.746 164.611 398.481 164.634 398.205 164.634C397.94 164.634 397.676 164.623 397.423 164.611C396.399 164.588 395.444 164.462 394.638 164.404C393.833 164.324 393.154 164.289 392.682 164.266C392.211 164.243 391.935 164.232 391.935 164.232V164.186Z" fill="#ED8879"/>
<path d="M401.3 167.669C401.3 167.669 401.76 167.68 402.45 167.795C402.795 167.853 403.187 167.933 403.601 168.037C404.027 168.14 404.464 168.267 404.901 168.427C405.12 168.508 405.338 168.577 405.557 168.692C405.66 168.738 405.764 168.795 405.867 168.841C406.005 168.91 406.063 168.968 406.155 169.025C406.328 169.152 406.5 169.266 406.661 169.381C406.822 169.508 406.96 169.646 407.087 169.772C407.352 170.013 407.524 170.243 407.662 170.393C407.789 170.554 407.858 170.657 407.858 170.657L407.72 170.772C407.72 170.772 407.639 170.703 407.478 170.577C407.409 170.519 407.306 170.439 407.202 170.358C407.098 170.266 406.96 170.197 406.834 170.094C406.696 170.002 406.569 169.887 406.408 169.784C406.236 169.68 406.063 169.577 405.879 169.473C405.798 169.427 405.683 169.347 405.614 169.324C405.522 169.278 405.419 169.243 405.327 169.197C405.143 169.106 404.924 169.037 404.717 168.956C404.291 168.807 403.865 168.657 403.463 168.519C403.06 168.382 402.692 168.244 402.37 168.129C401.726 167.887 401.3 167.692 401.3 167.692V167.669Z" fill="#ED8879"/>
<path d="M405.108 171.932C405.108 171.932 405.476 171.898 405.959 171.967C406.454 172.036 407.064 172.22 407.639 172.484C408.214 172.748 408.743 173.093 409.123 173.415C409.503 173.725 409.71 174.024 409.71 174.024L409.675 174.105C409.675 174.105 409.319 174.139 408.824 174.047C408.341 173.967 407.719 173.794 407.144 173.53C406.569 173.266 406.04 172.921 405.66 172.599C405.28 172.289 405.073 171.978 405.073 171.978L405.096 171.921L405.108 171.932Z" fill="#ED8879"/>
<path d="M397.319 157.774C397.319 157.774 398.067 157.693 399.183 157.59C399.735 157.544 400.391 157.475 401.093 157.417C401.438 157.383 401.795 157.348 402.163 157.314C402.531 157.291 402.876 157.211 403.233 157.153C403.578 157.073 403.923 156.992 404.245 156.889C404.614 156.785 404.959 156.705 405.292 156.613C405.649 156.544 405.994 156.486 406.316 156.429C406.639 156.36 406.949 156.349 407.225 156.314C407.501 156.291 407.766 156.245 407.996 156.245C408.226 156.245 408.433 156.245 408.594 156.257C408.917 156.257 409.112 156.257 409.112 156.257V156.349C409.112 156.349 408.928 156.372 408.606 156.418C408.445 156.441 408.249 156.463 408.031 156.498C407.812 156.532 407.559 156.601 407.294 156.67C407.03 156.739 406.731 156.785 406.431 156.889C406.132 156.981 405.81 157.073 405.488 157.165C405.166 157.291 404.821 157.406 404.487 157.532C404.303 157.601 404.119 157.67 403.923 157.705L403.348 157.797C402.957 157.831 402.566 157.866 402.198 157.866C401.829 157.866 401.461 157.866 401.116 157.866C400.414 157.866 399.758 157.866 399.206 157.866C398.09 157.866 397.342 157.843 397.342 157.843V157.751L397.319 157.774Z" fill="#ED8879"/>
<path d="M441.557 132.282C441.557 132.282 449.426 133.293 453.372 134.604C456.249 135.557 456.939 139.741 457.825 143.568C458.32 145.706 460.356 156.026 459.263 156.635C458.17 157.256 456.525 156.635 456.525 156.635L441.557 132.271V132.282Z" fill="#154747"/>
<path d="M431.501 142.936C431.501 142.936 433.572 140.707 435.689 140.431C437.817 140.155 442.684 142.35 444.524 148.786C446.377 155.222 447.01 160.969 446.929 160.992C446.86 161.026 443.846 162.106 443.846 162.106C443.846 162.106 447.458 164.796 448.425 165.003C449.38 165.209 452.394 163.29 454.039 162.681C455.685 162.06 459.516 160.555 459.654 159.67C459.792 158.785 455.961 137.627 453.763 136.052C451.577 134.478 443.178 133.041 441.384 133.041C439.589 133.041 433.284 138.086 431.984 138.684C430.684 139.27 430.718 141.672 431.489 142.936H431.501Z" fill="#206A6A"/>
<path d="M354.163 75.9102C351.022 88.989 349.193 99.4934 351.022 118.146C351.839 126.479 356.108 138.086 356.131 145.718C356.154 153.349 352.702 221.881 352.702 223.168C352.702 224.455 351.414 227.075 349.251 227.075H340.046C339.609 227.075 337.607 226.041 338.183 220.444C338.758 214.847 340.484 196.022 340.921 194.01C341.358 191.999 344.234 185.104 344.234 182.656C344.234 180.208 333.822 99.4819 333.627 97.6661C333.431 95.8502 332.718 94.3561 334.397 92.7816C336.077 91.1956 347.26 82.3346 348.652 81.036C350.044 79.7488 352.587 76.1515 354.198 75.9102H354.163Z" fill="#206A6A"/>
<path d="M348.882 130.788C348.204 126.421 347.502 121.893 347.283 118.123C346.259 100.838 347.191 90.9542 349.527 80.082C349.251 80.3923 348.998 80.6567 348.767 80.8865C346.558 91.4484 345.707 101.298 346.708 118.158C346.938 121.962 347.64 126.502 348.319 130.88C349.136 136.133 349.975 141.557 349.987 145.706C349.998 151.154 348.411 190.034 347.467 213.261C347.203 219.651 347.007 224.535 346.915 227.064H347.49C347.594 224.489 347.789 219.49 348.043 213.284C348.986 190.057 350.585 151.165 350.562 145.706C350.562 141.511 349.699 136.064 348.882 130.788Z" fill="#154747"/>
<path d="M353.15 149.05C354.288 149.05 355.21 148.129 355.21 146.993C355.21 145.857 354.288 144.936 353.15 144.936C352.013 144.936 351.091 145.857 351.091 146.993C351.091 148.129 352.013 149.05 353.15 149.05Z" fill="#154747"/>
<path d="M352.909 148.763C354.046 148.763 354.968 147.842 354.968 146.706C354.968 145.569 354.046 144.648 352.909 144.648C351.772 144.648 350.85 145.569 350.85 146.706C350.85 147.842 351.772 148.763 352.909 148.763Z" fill="#ED9258"/>
<path d="M352.564 146.706C352.564 146.959 352.357 147.166 352.115 147.166C351.874 147.166 351.655 146.959 351.655 146.706C351.655 146.453 351.862 146.246 352.115 146.246C352.369 146.246 352.564 146.453 352.564 146.706Z" fill="#154747"/>
<path d="M354.175 146.706C354.175 146.959 353.967 147.166 353.714 147.166C353.461 147.166 353.266 146.959 353.266 146.706C353.266 146.453 353.473 146.246 353.714 146.246C353.956 146.246 354.175 146.453 354.175 146.706Z" fill="#154747"/>
<path d="M351.77 178.759C352.908 178.759 353.83 177.838 353.83 176.702C353.83 175.566 352.908 174.645 351.77 174.645C350.633 174.645 349.711 175.566 349.711 176.702C349.711 177.838 350.633 178.759 351.77 178.759Z" fill="#154747"/>
<path d="M353.599 176.415C353.599 177.552 352.679 178.472 351.54 178.472C350.401 178.472 349.48 177.552 349.48 176.415C349.48 175.277 350.401 174.357 351.54 174.357C352.679 174.357 353.599 175.277 353.599 176.415Z" fill="#ED9258"/>
<path d="M351.183 176.415C351.183 176.668 350.976 176.874 350.735 176.874C350.493 176.874 350.274 176.668 350.274 176.415C350.274 176.162 350.482 175.955 350.735 175.955C350.988 175.955 351.183 176.162 351.183 176.415Z" fill="#154747"/>
<path d="M352.794 176.415C352.794 176.668 352.587 176.874 352.333 176.874C352.08 176.874 351.885 176.668 351.885 176.415C351.885 176.162 352.092 175.955 352.333 175.955C352.575 175.955 352.794 176.162 352.794 176.415Z" fill="#154747"/>
<path d="M350.389 208.48C351.527 208.48 352.449 207.559 352.449 206.422C352.449 205.286 351.527 204.365 350.389 204.365C349.252 204.365 348.33 205.286 348.33 206.422C348.33 207.559 349.252 208.48 350.389 208.48Z" fill="#154747"/>
<path d="M352.218 206.135C352.218 207.273 351.298 208.193 350.159 208.193C349.02 208.193 348.1 207.273 348.1 206.135C348.1 204.998 349.02 204.078 350.159 204.078C351.298 204.078 352.218 204.998 352.218 206.135Z" fill="#ED9258"/>
<path d="M349.814 206.135C349.814 206.388 349.607 206.595 349.365 206.595C349.124 206.595 348.905 206.388 348.905 206.135C348.905 205.883 349.112 205.676 349.365 205.676C349.619 205.676 349.814 205.883 349.814 206.135Z" fill="#154747"/>
<path d="M351.425 206.135C351.425 206.388 351.217 206.595 350.964 206.595C350.711 206.595 350.516 206.388 350.516 206.135C350.516 205.883 350.723 205.676 350.964 205.676C351.206 205.676 351.425 205.883 351.425 206.135Z" fill="#154747"/>
<path d="M359.628 33.5818C359.628 33.5818 359.398 33.6852 359.18 33.8576C359.088 33.9381 358.777 34.3059 358.639 34.8575C358.547 35.1333 358.524 35.4666 358.524 35.8229C358.524 36.0068 358.559 36.1677 358.582 36.3746C358.628 36.6044 358.674 36.8343 358.72 37.0756C358.904 38.0295 359.088 39.1099 359.582 40.0408C359.64 40.1212 359.744 40.3051 359.755 40.3166L359.916 40.4775C359.916 40.4775 359.997 40.535 360.043 40.558C360.204 40.6729 360.503 40.8338 360.768 40.9487C361.32 41.1901 361.941 41.3739 362.585 41.5119C363.885 41.7762 365.312 41.9026 366.762 41.7762C368.223 41.6498 369.696 41.328 371.122 40.6959C371.87 40.42 372.549 40.0753 373.239 39.719L374.206 39.0869C374.505 38.857 374.781 38.6042 375.068 38.3513C375.552 37.7997 375.931 37.1906 376.058 36.524C376.104 36.1792 376.127 35.8574 376.104 35.4436C376.104 35.0414 376.104 34.6506 376.058 34.2944C376.046 33.9266 375.977 33.5818 375.897 33.2485C375.874 33.0761 375.805 32.9382 375.759 32.7888C375.713 32.6509 375.655 32.49 375.563 32.3061C375.241 31.5591 374.942 31.0419 374.574 30.8005C374.482 30.7431 374.378 30.7201 374.286 30.6626C374.183 30.6626 374.01 30.6396 373.987 30.6167C373.63 30.6396 373.239 30.6281 372.905 30.6741C372.238 30.7316 371.571 30.8005 370.892 30.904C369.546 31.0879 368.269 31.2832 367.118 31.5246C365.945 31.7315 364.898 32.0188 363.954 32.2257C363.034 32.4785 362.229 32.7084 361.561 32.8922C360.273 33.3405 359.525 33.6048 359.525 33.6048L359.605 33.5588L359.628 33.5818ZM359.007 32.3636C359.007 32.3636 359.767 32.0533 361.101 31.5246C362.459 31.0649 364.403 30.4328 366.796 29.9386C367.993 29.6742 369.281 29.4329 370.673 29.2375C371.352 29.1341 372.089 29.0536 372.871 28.9847C373.262 28.9502 373.607 28.9617 373.975 28.9502C374.321 28.9847 374.505 29.0306 374.769 29.0766C375.011 29.1801 375.276 29.272 375.483 29.4329C376.392 30.0535 376.725 31.0304 376.99 31.6855C377.105 32.0073 377.323 32.5589 377.358 32.9612C377.416 33.3979 377.45 33.8346 377.427 34.2599C377.427 34.6966 377.393 35.0989 377.346 35.4896C377.323 35.8574 377.254 36.3401 377.139 36.7768C376.886 37.6733 376.323 38.4203 375.701 39.0179C374.424 40.1672 372.859 40.8453 371.41 41.4314C369.949 42.052 368.361 42.4773 366.831 42.6382C365.289 42.799 363.782 42.7186 362.378 42.4773C361.676 42.3393 360.998 42.1669 360.353 41.9141C360.02 41.7762 359.732 41.6613 359.387 41.4199C359.306 41.3624 359.203 41.2935 359.134 41.236L358.973 41.0751C358.789 40.8568 358.754 40.7648 358.639 40.6039C357.972 39.4202 357.776 38.2824 357.546 37.3285C357.489 37.0871 357.443 36.8573 357.385 36.6389C357.35 36.3975 357.281 36.1217 357.281 35.8919C357.258 35.4092 357.281 34.9495 357.397 34.5587C357.592 33.7542 357.937 33.1681 358.42 32.7658C358.789 32.4785 358.927 32.4325 358.938 32.421L359.019 32.3751L359.007 32.3636Z" fill="#3F4E7A"/>
<path d="M342.485 38.3744L339.172 38.2939L339.943 40.0983L343.256 40.5695L342.485 38.3744Z" fill="#2F3B5C"/>
<path d="M341.439 37.8226C341.439 37.8226 341.416 37.8455 341.358 37.8915C341.324 37.926 341.151 38.0409 341.209 38.0524C341.209 38.0639 341.209 38.0754 341.197 38.0869C341.174 38.1444 341.151 38.2018 341.128 38.2708C341.07 38.3972 341.036 38.6041 341.001 38.8224C340.932 39.2706 340.932 39.8683 341.036 40.5119C341.151 41.2244 341.278 42.0404 341.45 42.8909C341.554 43.3046 341.623 43.7643 341.784 44.1666L341.887 44.4884C341.887 44.4884 341.956 44.6608 341.91 44.5918L342.014 44.7412C342.083 44.8332 342.152 44.9596 342.221 45.04L342.44 45.2469C343.072 45.8445 344.027 46.3732 345.028 46.6376C346.041 46.9479 347.134 46.8329 348.158 46.4422C348.721 46.2238 349.205 45.9825 349.653 45.6722C350.079 45.3389 350.493 44.9596 350.746 44.4999C351.31 43.5805 351.218 42.5001 351.183 41.2934C351.149 40.7417 351.103 40.1901 351.034 39.6614C351.011 39.3971 350.93 39.1672 350.884 38.9144C350.815 38.6385 350.758 38.3627 350.689 38.0869C350.562 37.5697 350.401 37.11 350.217 36.8227C350.171 36.7537 350.125 36.6733 350.091 36.6618C350.056 36.6158 350.021 36.5813 349.987 36.5813C349.975 36.5813 349.952 36.5698 349.941 36.5468C349.941 36.5468 350.079 36.5698 350.01 36.5468H349.964H349.872L349.492 36.4779C348.698 36.4319 347.674 36.4549 346.846 36.5354C345.995 36.6273 345.201 36.7307 344.522 36.8801C343.832 36.9951 343.268 37.2019 342.785 37.3284C342.313 37.4663 341.979 37.6502 341.726 37.7421C341.485 37.8455 341.358 37.8915 341.358 37.8915L341.462 37.8226H341.439ZM340.622 36.7307L340.679 36.6963C340.679 36.6963 340.817 36.6273 341.093 36.4894C341.358 36.3745 341.749 36.1331 342.267 35.9492C342.785 35.7653 343.406 35.524 344.154 35.3631C344.89 35.1562 345.73 35.0298 346.65 34.9034C347.594 34.7999 348.514 34.708 349.768 34.7884L350.148 34.8459H350.24L350.286 34.8689L350.39 34.8919H350.436C350.539 34.9493 350.643 34.9953 350.746 35.0413C350.965 35.1332 351.126 35.2711 351.276 35.4206C351.448 35.57 351.54 35.7194 351.644 35.8803C352.035 36.5124 352.161 37.1215 352.299 37.6961C352.357 37.972 352.426 38.2593 352.461 38.5236C352.507 38.8339 352.576 39.1672 352.587 39.466C352.633 40.0866 352.599 40.7073 352.553 41.3279C352.415 42.4312 352.357 43.8793 351.529 44.9711C350.792 46.0859 349.538 46.7295 348.468 47.1547C347.318 47.5915 345.995 47.7868 344.844 47.4535C343.671 47.1547 342.658 46.6835 341.761 45.9135C341.519 45.7066 341.312 45.4883 341.185 45.2929L341.07 45.1435C340.967 44.9711 341.001 44.9941 340.955 44.9021L340.806 44.5344C340.587 44.0402 340.495 43.5805 340.369 43.1322C340.15 42.2358 339.989 41.4428 339.839 40.7187C339.69 39.9372 339.655 39.2477 339.713 38.6615C339.747 38.3627 339.782 38.0984 339.862 37.857C339.908 37.7306 339.943 37.6157 339.977 37.5122C340.046 37.3743 340.127 37.2479 340.208 37.1445C340.38 36.8916 340.426 36.9031 340.484 36.8342C340.541 36.7882 340.564 36.7652 340.564 36.7652L340.61 36.7192L340.622 36.7307Z" fill="#3F4E7A"/>
<path d="M374.527 29.0422C374.527 29.0422 376.483 29.0307 376.909 29.0422C377.335 29.0537 377.737 29.5594 377.864 29.9961C377.99 30.4328 378.117 31.2833 378.128 31.4327C378.151 31.5706 377.841 31.9959 377.645 32.2142C377.45 32.4211 377.346 32.8348 377.346 32.8348L374.527 29.0537V29.0422Z" fill="#3F4E7A"/>
<path d="M376.852 29.2373L381.293 29.3407L382.903 30.8808L377.956 31.5818L376.852 29.2373Z" fill="#3F4E7A"/>
<path d="M340.104 37.3174C340.104 37.3174 339.138 38.0184 338.977 38.2023C338.816 38.3862 338.712 38.6506 338.758 38.8804C338.816 39.1103 338.942 39.5815 338.988 39.7768C339.034 39.9722 339.932 40.0986 339.932 40.0986L340.093 37.3174H340.104Z" fill="#3F4E7A"/>
<path d="M351.39 36.8686C351.39 36.8686 354.439 35.4435 357.776 35.3516L358.063 37.3168C358.063 37.3168 353.553 37.5697 351.885 39.0637L351.379 36.8686H351.39Z" fill="#3F4E7A"/>
</svg>
